# xmcd CD database file
#
# Track frame offsets:
#	150
#	54236
#	88968
#	184851
#	189148
#
# Disc length: 3504 seconds
#
# Revision: 0
# Processed by: cddbd v1.5.1PL2 Copyright (c) Steve Scherf et al.
# Submitted via: CDex 1.50Beta7
#
DISCID=380dae05
DTITLE=NHØP - Live Cirkusbygningen Copenhagen Jazz Festival 1996
DYEAR=1996
DGENRE=Jazz
TTITLE0=Future Child
TTITLE1=?
TTITLE2=Those Were
TTITLE3=Band Intro
TTITLE4=Derfor Kan Vor Øje Glædes
EXTD=YEAR: 1996
EXTT0=
EXTT1=
EXTT2=
EXTT3=
EXTT4=
PLAYORDER=
